<?xml version="1.0" encoding="UTF-8" standalone="no"?>
<svg width="324px" height="123px" viewBox="0 0 324 123" version="1.1" xmlns="http://www.w3.org/2000/svg" xmlns:xlink="http://www.w3.org/1999/xlink">
    <!-- Generator: Sketch 3.6.1 (26313) - http://www.bohemiancoding.com/sketch -->
    <title>logo</title>
    <desc>Created with Sketch.</desc>
    <defs></defs>
    <g id="Menu" stroke="none" stroke-width="1" fill="none" fill-rule="evenodd">
        <g id="Main" transform="translate(-438.000000, -125.000000)">
            <g id="logo" transform="translate(440.000000, 121.000000)">
                <g id="karel" transform="translate(0.000000, 39.000000)" stroke="#404040" stroke-width="3">
                    <g id="Letters" transform="translate(2.000000, 2.000000)">
                        <path d="M1.5,1 L1.5,81" id="K"></path>
                        <path d="M40.5,1 L0.5,41 L40.5,81" id="K"></path>
                        <path d="M60,81 L114.5,1 L114.5,81" id="A" stroke-linejoin="bevel"></path>
                        <path d="M184.5,1 L184.5,41.5 L135,41.5 L184.5,81" id="R"></path>
                        <path d="M205,1.5 L250,1.5" id="E"></path>
                        <path d="M205,41.5 L250,41.5" id="E"></path>
                        <path d="M205,80.5 L250,80.5" id="E"></path>
                        <path d="M315,1 L270,80.5 L315,80.5" id="L"></path>
                    </g>
                    <g id="Dots" fill="#FFFFFF">
                        <circle id="Dot" cx="3.5" cy="3.5" r="3.5"></circle>
                        <circle id="Dot" cx="3.5" cy="82.5" r="3.5"></circle>
                        <circle id="Dot" cx="42.5" cy="3.5" r="3.5"></circle>
                        <circle id="Dot" cx="42.5" cy="82.5" r="3.5"></circle>
                        <circle id="Dot" cx="3.5" cy="43.5" r="3.5"></circle>
                        <circle id="Dot" cx="116.5" cy="3.5" r="3.5"></circle>
                        <circle id="Dot" cx="116.5" cy="82.5" r="3.5"></circle>
                        <circle id="Dot" cx="62.5" cy="82.5" r="3.5"></circle>
                        <circle id="Dot" cx="186.5" cy="82.5" r="3.5"></circle>
                        <circle id="Dot" cx="136.5" cy="43.5" r="3.5"></circle>
                        <circle id="Dot" cx="186.5" cy="3.5" r="3.5"></circle>
                        <circle id="Dot" cx="206.5" cy="3.5" r="3.5"></circle>
                        <circle id="Dot" cx="251.5" cy="3.5" r="3.5"></circle>
                        <circle id="Dot" cx="251.5" cy="43.5" r="3.5"></circle>
                        <circle id="Dot" cx="251.5" cy="82.5" r="3.5"></circle>
                        <circle id="Dot" cx="206.5" cy="82.5" r="3.5"></circle>
                        <circle id="Dot" cx="206.5" cy="43.5" r="3.5"></circle>
                        <circle id="Dot" cx="316.5" cy="3.5" r="3.5"></circle>
                        <circle id="Dot" cx="316.5" cy="82.5" r="3.5"></circle>
                        <circle id="Dot" cx="271.5" cy="82.5" r="3.5"></circle>
                    </g>
                </g>
                <text id="THE-JOURNEY-OF" font-family="Lato-Regular, Lato" font-size="18" font-weight="normal" line-spacing="20" fill="#E4E4E4">
                    <tspan x="83.977" y="18">THE JOURNEY OF</tspan>
                </text>
            </g>
        </g>
    </g>
</svg>